# xmcd CD database file
#
# Track frame offsets:
#	150
#	13927
#	25657
#	38865
#	50875
#	62855
#	75305
#	87600
#	99717
#	112680
#	124240
#	135960
#	147877
#	160452
#	173382
#	186167
#	196452
#	208962
#	222210
#	235547
#
# Disc length: 3324 seconds
#
# Revision: 2
# Processed by: cddbd v1.4PL0 Copyright (c) Steve Scherf et al.
# Submitted via: CDex 1.51
#
DISCID=160cfa14
DTITLE=Bob Wills - The Essential Bob Wills 1935-1947
DYEAR=1992
DGENRE=Country
TTITLE0=Osage Stomp
TTITLE1=Steel Guitar Rag
TTITLE2=Right Or Wrong
TTITLE3=Time Changes Everything
TTITLE4=New San Antonio Rose
TTITLE5=Bob Wills' Special
TTITLE6=Twin Guitar Special
TTITLE7=Take Me Back To Tulsa
TTITLE8=A Maiden's Prayer
TTITLE9=Home In San Antone
TTITLE10=Miss Molly
TTITLE11=Texas Playboy Rag
TTITLE12=Stay A Little Longer
TTITLE13=Roly Poly
TTITLE14=New Spanish Two Step
TTITLE15=Sugar Moon
TTITLE16=Brain Cloudy Blues
TTITLE17=Fat Boy Rag
TTITLE18=Deep Water
TTITLE19=Bob Wills' Boogie
EXTD=YEAR: 1992
EXTT0=
EXTT1=
EXTT2=
EXTT3=
EXTT4=
EXTT5=
EXTT6=
EXTT7=
EXTT8=
EXTT9=
EXTT10=
EXTT11=
EXTT12=
EXTT13=
EXTT14=
EXTT15=
EXTT16=
EXTT17=
EXTT18=
EXTT19=
PLAYORDER=
